<svg version="1.1" id="Layer_1" xmlns="http://www.w3.org/2000/svg" xmlns:xlink="http://www.w3.org/1999/xlink" x="0px" y="0px"
	 width="100%" viewBox="0 0 3000 3000" enable-background="new 0 0 3000 3000" xml:space="preserve">
<path fill="#FFFFFF" opacity="1.000000" stroke="none" 
	d="
M1676.000000,3002.000000 
	C1117.333374,3002.000000 559.666870,3002.000000 2.000225,3002.000000 
	C2.000150,2002.000244 2.000150,1002.000549 2.000075,2.000627 
	C1001.999512,2.000418 2001.999023,2.000418 3001.999023,2.000209 
	C3001.999268,1001.999329 3001.999268,2001.998657 3001.999512,3001.999023 
	C2560.333252,3002.000000 2118.666748,3002.000000 1676.000000,3002.000000 
M2325.000000,302.323975 
	C1744.333008,302.323975 1163.666138,302.327118 582.999146,302.311371 
	C561.693481,302.310791 540.469360,303.466553 519.586426,307.823975 
	C419.814209,328.642365 349.409729,386.167236 307.172852,478.559235 
	C296.922882,500.980743 290.519836,524.794067 286.443970,548.912720 
	C283.692596,565.193726 284.175629,582.114868 284.161713,598.750488 
	C284.020691,767.083130 284.075592,935.415894 284.075562,1103.748657 
	C284.075500,1257.748169 284.075531,1411.747559 284.075531,1565.747070 
	C284.075531,1569.619019 284.075531,1573.490845 284.075531,1576.874756 
	C389.282440,1576.874756 493.161774,1576.874756 597.225037,1576.874756 
	C598.761536,1572.745239 600.125732,1569.390625 601.268066,1565.962158 
	C619.575623,1511.015747 637.845520,1456.056763 656.143555,1401.107300 
	C670.131287,1359.101807 684.094910,1317.088135 698.163452,1275.109619 
	C714.228516,1227.174072 762.803467,1203.818359 808.398743,1216.344971 
	C843.577698,1226.009644 864.811035,1250.306885 873.599670,1285.451294 
	C919.788391,1470.154053 965.892944,1654.877686 1012.032715,1839.592651 
	C1020.818542,1874.765625 1029.631714,1909.931763 1039.029053,1947.485840 
	C1041.357422,1941.985596 1043.092285,1938.557983 1044.294189,1934.952759 
	C1158.828369,1591.412109 1273.323608,1247.858521 1387.815674,904.303772 
	C1400.654419,865.778381 1413.085693,827.112305 1426.371338,788.741882 
	C1443.682617,738.744934 1499.685669,714.019836 1547.618408,734.791870 
	C1574.725220,746.538818 1591.146973,767.401367 1600.389038,795.208252 
	C1678.811890,1031.162109 1757.500122,1267.027588 1836.099121,1502.922974 
	C1884.291626,1647.560303 1932.463745,1792.204712 1980.673706,1936.836304 
	C1981.795410,1940.201538 1983.259399,1943.452515 1984.995728,1947.851562 
	C1986.148438,1944.011597 1987.015869,1941.497437 1987.658691,1938.927246 
	C2027.709106,1778.758545 2067.745361,1618.586304 2107.772949,1458.411865 
	C2122.541260,1399.315430 2136.982178,1340.135254 2152.119873,1281.133667 
	C2168.593018,1216.926758 2245.935303,1191.587280 2297.457520,1233.137451 
	C2312.800781,1245.511230 2321.895508,1261.835693 2328.014893,1280.224121 
	C2359.859863,1375.919434 2391.792236,1471.585693 2423.709717,1567.256836 
	C2424.741211,1570.348145 2425.945068,1573.381714 2427.303955,1577.083008 
	C2520.963867,1577.083008 2614.259521,1577.089722 2707.555176,1577.055542 
	C2710.858154,1577.054321 2714.162354,1576.660156 2717.462646,1576.408569 
	C2717.737549,1576.387695 2718.010498,1576.078369 2718.245361,1575.860718 
	C2718.488037,1575.635864 2718.682861,1575.359375 2719.490234,1574.409790 
	C2719.490234,1566.812622 2719.489990,1558.510864 2719.489990,1550.209229 
	C2719.489990,1238.210327 2719.502686,926.211365 2719.459961,614.212463 
	C2719.457275,594.970459 2718.721924,575.838989 2716.557617,556.592651 
	C2714.687988,539.968079 2711.386230,523.871765 2706.683105,508.094330 
	C2691.070312,455.714996 2662.443604,411.313965 2621.386475,375.333130 
	C2576.994141,336.429352 2525.913818,311.738983 2466.553467,305.979645 
	C2451.393555,304.508759 2436.198975,302.749542 2420.996826,302.486877 
	C2389.673096,301.945648 2358.333252,302.324066 2325.000000,302.323975 
M284.399261,1759.701782 
	C284.291321,1763.355103 284.089386,1767.008423 284.088959,1770.661743 
	C284.072815,1904.990356 284.071350,2039.318848 284.076782,2173.647461 
	C284.080444,2263.977539 284.020416,2354.307861 284.194824,2444.637451 
	C284.219879,2457.608398 284.107697,2470.809082 286.375000,2483.489258 
	C289.327820,2500.002930 293.558990,2516.460693 299.039612,2532.320801 
	C327.227478,2613.893555 381.422363,2671.781982 460.021301,2707.103760 
	C482.640656,2717.268311 506.587280,2723.335205 530.738953,2727.464355 
	C548.312378,2730.468506 566.593079,2729.953613 584.558655,2729.956787 
	C1195.870117,2730.064453 1807.181641,2730.046875 2418.493164,2730.038818 
	C2425.825684,2730.038574 2433.192383,2730.353027 2440.483643,2729.773682 
	C2454.009766,2728.698730 2467.735840,2728.242676 2480.953613,2725.489014 
	C2590.919434,2702.582031 2665.473145,2638.242676 2704.072998,2532.718262 
	C2710.812500,2514.293701 2715.646484,2495.292236 2716.174072,2475.342529 
	C2716.522949,2462.140869 2719.328125,2448.979248 2719.340332,2435.797852 
	C2719.548340,2213.806152 2719.489746,1991.814087 2719.490479,1769.822021 
	C2719.490479,1766.575684 2719.490479,1763.329346 2719.490479,1758.916626 
	C2714.658203,1758.916626 2710.742432,1758.916504 2706.826904,1758.916504 
	C2594.164307,1758.916260 2481.501465,1758.956299 2368.838867,1758.836792 
	C2360.211182,1758.827637 2351.348877,1758.752441 2342.999268,1756.894043 
	C2310.331543,1749.623535 2287.567871,1730.219238 2275.980225,1698.672607 
	C2268.867676,1679.309326 2262.748535,1659.581665 2256.137451,1640.033081 
	C2255.286865,1637.518066 2254.161133,1635.096313 2252.622559,1631.296631 
	C2251.453857,1634.785645 2250.695557,1636.625244 2250.218262,1638.534912 
	C2202.116699,1830.977905 2154.047852,2023.428711 2105.942627,2215.870605 
	C2098.759766,2244.605957 2092.282959,2273.555176 2083.944580,2301.955078 
	C2070.320557,2348.356201 2019.145630,2376.864746 1971.215454,2361.768066 
	C1940.053589,2351.952393 1920.180176,2330.640137 1909.880615,2299.690674 
	C1837.365112,2081.787354 1764.701782,1863.932739 1692.081177,1646.063965 
	C1633.561035,1470.498535 1575.036377,1294.934570 1516.496826,1119.375488 
	C1515.410645,1116.118408 1514.116211,1112.930786 1512.918823,1109.710815 
	C1509.780640,1114.036743 1508.459229,1117.992065 1507.140625,1121.948242 
	C1388.734497,1477.203125 1270.327515,1832.457642 1151.924316,2187.713379 
	C1139.189331,2225.923584 1126.633301,2264.194336 1113.703857,2302.338623 
	C1103.792358,2331.579590 1084.777222,2352.433105 1054.946045,2361.809082 
	C1008.400391,2376.438965 952.112305,2351.388672 937.948364,2293.913330 
	C910.235291,2181.457031 881.942200,2069.143799 853.848389,1956.781372 
	C827.368286,1850.873535 800.838440,1744.978027 774.305786,1639.083374 
	C773.775879,1636.968506 772.942627,1634.929565 771.670593,1631.115112 
	C770.032227,1635.542114 768.966309,1638.194336 768.062927,1640.900635 
	C762.582642,1657.318604 756.695557,1673.617188 751.769775,1690.200806 
	C738.493652,1734.897217 700.869507,1760.382202 656.692627,1759.086060 
	C626.386536,1758.197021 596.033081,1758.959839 565.700928,1758.908569 
	C472.382477,1758.750977 379.064117,1758.557129 284.399261,1759.701782 
z"/>
<path fill="#42554F" opacity="1.000000" stroke="none" 
	d="
M2326.000000,302.324036 
	C2358.333252,302.324066 2389.673096,301.945648 2420.996826,302.486877 
	C2436.198975,302.749542 2451.393555,304.508759 2466.553467,305.979645 
	C2525.913818,311.738983 2576.994141,336.429352 2621.386475,375.333130 
	C2662.443604,411.313965 2691.070312,455.714996 2706.683105,508.094330 
	C2711.386230,523.871765 2714.687988,539.968079 2716.557617,556.592651 
	C2718.721924,575.838989 2719.457275,594.970459 2719.459961,614.212463 
	C2719.502686,926.211365 2719.489990,1238.210327 2719.489990,1550.209229 
	C2719.489990,1558.510864 2719.490234,1566.812622 2719.490234,1574.409790 
	C2718.682861,1575.359375 2718.488037,1575.635864 2718.245361,1575.860718 
	C2718.010498,1576.078369 2717.737549,1576.387695 2717.462646,1576.408569 
	C2714.162354,1576.660156 2710.858154,1577.054321 2707.555176,1577.055542 
	C2614.259521,1577.089722 2520.963867,1577.083008 2427.303955,1577.083008 
	C2425.945068,1573.381714 2424.741211,1570.348145 2423.709717,1567.256836 
	C2391.792236,1471.585693 2359.859863,1375.919434 2328.014893,1280.224121 
	C2321.895508,1261.835693 2312.800781,1245.511230 2297.457520,1233.137451 
	C2245.935303,1191.587280 2168.593018,1216.926758 2152.119873,1281.133667 
	C2136.982178,1340.135254 2122.541260,1399.315430 2107.772949,1458.411865 
	C2067.745361,1618.586304 2027.709106,1778.758545 1987.658691,1938.927246 
	C1987.015869,1941.497437 1986.148438,1944.011597 1984.995728,1947.851562 
	C1983.259399,1943.452515 1981.795410,1940.201538 1980.673706,1936.836304 
	C1932.463745,1792.204712 1884.291626,1647.560303 1836.099121,1502.922974 
	C1757.500122,1267.027588 1678.811890,1031.162109 1600.389038,795.208252 
	C1591.146973,767.401367 1574.725220,746.538818 1547.618408,734.791870 
	C1499.685669,714.019836 1443.682617,738.744934 1426.371338,788.741882 
	C1413.085693,827.112305 1400.654419,865.778381 1387.815674,904.303772 
	C1273.323608,1247.858521 1158.828369,1591.412109 1044.294189,1934.952759 
	C1043.092285,1938.557983 1041.357422,1941.985596 1039.029053,1947.485840 
	C1029.631714,1909.931763 1020.818542,1874.765625 1012.032715,1839.592651 
	C965.892944,1654.877686 919.788391,1470.154053 873.599670,1285.451294 
	C864.811035,1250.306885 843.577698,1226.009644 808.398743,1216.344971 
	C762.803467,1203.818359 714.228516,1227.174072 698.163452,1275.109619 
	C684.094910,1317.088135 670.131287,1359.101807 656.143555,1401.107300 
	C637.845520,1456.056763 619.575623,1511.015747 601.268066,1565.962158 
	C600.125732,1569.390625 598.761536,1572.745239 597.225037,1576.874756 
	C493.161774,1576.874756 389.282440,1576.874756 284.075531,1576.874756 
	C284.075531,1573.490845 284.075531,1569.619019 284.075531,1565.747070 
	C284.075531,1411.747559 284.075500,1257.748169 284.075562,1103.748657 
	C284.075592,935.415894 284.020691,767.083130 284.161713,598.750488 
	C284.175629,582.114868 283.692596,565.193726 286.443970,548.912720 
	C290.519836,524.794067 296.922882,500.980743 307.172852,478.559235 
	C349.409729,386.167236 419.814209,328.642365 519.586426,307.823975 
	C540.469360,303.466553 561.693481,302.310791 582.999146,302.311371 
	C1163.666138,302.327118 1744.333008,302.323975 2326.000000,302.324036 
z"/>
<path fill="#42554F" opacity="1.000000" stroke="none" 
	d="
M285.072479,1759.039551 
	C379.064117,1758.557129 472.382477,1758.750977 565.700928,1758.908569 
	C596.033081,1758.959839 626.386536,1758.197021 656.692627,1759.086060 
	C700.869507,1760.382202 738.493652,1734.897217 751.769775,1690.200806 
	C756.695557,1673.617188 762.582642,1657.318604 768.062927,1640.900635 
	C768.966309,1638.194336 770.032227,1635.542114 771.670593,1631.115112 
	C772.942627,1634.929565 773.775879,1636.968506 774.305786,1639.083374 
	C800.838440,1744.978027 827.368286,1850.873535 853.848389,1956.781372 
	C881.942200,2069.143799 910.235291,2181.457031 937.948364,2293.913330 
	C952.112305,2351.388672 1008.400391,2376.438965 1054.946045,2361.809082 
	C1084.777222,2352.433105 1103.792358,2331.579590 1113.703857,2302.338623 
	C1126.633301,2264.194336 1139.189331,2225.923584 1151.924316,2187.713379 
	C1270.327515,1832.457642 1388.734497,1477.203125 1507.140625,1121.948242 
	C1508.459229,1117.992065 1509.780640,1114.036743 1512.918823,1109.710815 
	C1514.116211,1112.930786 1515.410645,1116.118408 1516.496826,1119.375488 
	C1575.036377,1294.934570 1633.561035,1470.498535 1692.081177,1646.063965 
	C1764.701782,1863.932739 1837.365112,2081.787354 1909.880615,2299.690674 
	C1920.180176,2330.640137 1940.053589,2351.952393 1971.215454,2361.768066 
	C2019.145630,2376.864746 2070.320557,2348.356201 2083.944580,2301.955078 
	C2092.282959,2273.555176 2098.759766,2244.605957 2105.942627,2215.870605 
	C2154.047852,2023.428711 2202.116699,1830.977905 2250.218262,1638.534912 
	C2250.695557,1636.625244 2251.453857,1634.785645 2252.622559,1631.296631 
	C2254.161133,1635.096313 2255.286865,1637.518066 2256.137451,1640.033081 
	C2262.748535,1659.581665 2268.867676,1679.309326 2275.980225,1698.672607 
	C2287.567871,1730.219238 2310.331543,1749.623535 2342.999268,1756.894043 
	C2351.348877,1758.752441 2360.211182,1758.827637 2368.838867,1758.836792 
	C2481.501465,1758.956299 2594.164307,1758.916260 2706.826904,1758.916504 
	C2710.742432,1758.916504 2714.658203,1758.916626 2719.490479,1758.916626 
	C2719.490479,1763.329346 2719.490479,1766.575684 2719.490479,1769.822021 
	C2719.489746,1991.814087 2719.548340,2213.806152 2719.340332,2435.797852 
	C2719.328125,2448.979248 2716.522949,2462.140869 2716.174072,2475.342529 
	C2715.646484,2495.292236 2710.812500,2514.293701 2704.072998,2532.718262 
	C2665.473145,2638.242676 2590.919434,2702.582031 2480.953613,2725.489014 
	C2467.735840,2728.242676 2454.009766,2728.698730 2440.483643,2729.773682 
	C2433.192383,2730.353027 2425.825684,2730.038574 2418.493164,2730.038818 
	C1807.181641,2730.046875 1195.870117,2730.064453 584.558655,2729.956787 
	C566.593079,2729.953613 548.312378,2730.468506 530.738953,2727.464355 
	C506.587280,2723.335205 482.640656,2717.268311 460.021301,2707.103760 
	C381.422363,2671.781982 327.227478,2613.893555 299.039612,2532.320801 
	C293.558990,2516.460693 289.327820,2500.002930 286.375000,2483.489258 
	C284.107697,2470.809082 284.219879,2457.608398 284.194824,2444.637451 
	C284.020416,2354.307861 284.080444,2263.977539 284.076782,2173.647461 
	C284.071350,2039.318848 284.072815,1904.990356 284.088959,1770.661743 
	C284.089386,1767.008423 284.291321,1763.355103 285.072479,1759.039551 
z"/>
</svg>